<svg xmlns="http://www.w3.org/2000/svg" viewBox="0 0 640 500" fill="none" role="img" aria-label="Абстрактная поисковая выдача">
  <path d="M505 31 517 66l35 12-35 12-12 35-12-35-35-12 35-12 12-35Z" fill="#BFC1CA"/>
  <rect x="87" y="82" width="425" height="352" rx="39" fill="#C9CBD2"/>
  <rect x="110" y="59" width="425" height="352" rx="39" fill="#F8F8F9"/>

  <rect x="148" y="111" width="48" height="48" rx="15" fill="#D5D7DD"/>
  <rect x="212" y="119" width="229" height="13" rx="6.5" fill="#555862"/>
  <rect x="212" y="140" width="169" height="9" rx="4.5" fill="#C1C3CA"/>

  <rect x="148" y="177" width="48" height="48" rx="15" fill="#D5D7DD"/>
  <rect x="212" y="185" width="258" height="13" rx="6.5" fill="#555862"/>
  <rect x="212" y="206" width="191" height="9" rx="4.5" fill="#C1C3CA"/>

  <rect x="137" y="236" width="370" height="66" rx="18" fill="#E5E6E9"/>
  <path d="M144 251h-12v36h12" stroke="#1400FF" stroke-width="5" stroke-linecap="round" stroke-linejoin="round"/>
  <rect x="154" y="245" width="48" height="48" rx="15" fill="#292A30"/>
  <path d="m178 254 5 12 12 5-12 5-5 12-5-12-12-5 12-5 5-12Z" fill="#F8F8F9"/>
  <rect x="218" y="253" width="214" height="13" rx="6.5" fill="#292A30"/>
  <rect x="218" y="274" width="155" height="9" rx="4.5" fill="#A9ABB4"/>

  <rect x="148" y="319" width="48" height="48" rx="15" fill="#D5D7DD"/>
  <rect x="212" y="327" width="201" height="13" rx="6.5" fill="#555862"/>
  <rect x="212" y="348" width="239" height="9" rx="4.5" fill="#C1C3CA"/>

  <rect x="54" y="349" width="64" height="64" rx="21" fill="#B9BBC4"/>
  <rect x="469" y="392" width="89" height="89" rx="28" fill="#D7D8DE"/>
  <rect x="519" y="325" width="34" height="34" rx="10" fill="#1400FF"/>
</svg>
